<svg width="45" height="47" viewBox="0 0 45 47" fill="none" xmlns="http://www.w3.org/2000/svg">
<path d="M39.7052 12.2227H36.8299C36.0988 9.97346 34.846 8.29507 33.7027 6.76381C32.2268 4.78162 30.948 3.06917 30.948 0.544772C30.9479 0.444939 30.9203 0.347035 30.8682 0.261748C30.816 0.176461 30.7413 0.107069 30.6522 0.0611452C30.5637 0.0148775 30.464 -0.00581632 30.3643 0.00140676C30.2646 0.00862985 30.1689 0.0434813 30.0881 0.102015C27.6866 1.81174 25.6821 4.69307 24.9825 7.44361C24.5717 9.06206 24.4636 10.8494 24.4348 12.2227H23.1464C22.0018 11.1042 21.7033 9.15061 21.6992 9.12337C21.6856 9.03984 21.6526 8.96063 21.6029 8.89199C21.5532 8.82335 21.4881 8.76717 21.4128 8.72791C21.3374 8.68865 21.2539 8.66738 21.1689 8.66579C21.0839 8.6642 20.9997 8.68234 20.9229 8.71875C20.8353 8.76099 19.2909 9.53615 18.4461 12.2295H4.57095C3.38988 12.2309 2.25749 12.6979 1.42171 13.5283C0.585921 14.3586 0.114831 15.4846 0.111572 16.6598L0.111572 41.882C0.113022 43.0583 0.583313 44.1861 1.41929 45.0179C2.25528 45.8497 3.38869 46.3176 4.57095 46.3191H39.7052C40.8874 46.3176 42.0208 45.8497 42.8568 45.0179C43.6928 44.1861 44.1631 43.0583 44.1645 41.882V16.6598C44.1631 15.4834 43.6928 14.3557 42.8568 13.5239C42.0208 12.6921 40.8874 12.2241 39.7052 12.2227ZM27.3744 8.0444C27.6934 6.79242 28.3767 5.47232 29.2653 4.31706C29.8937 5.7734 30.8193 7.01175 31.7298 8.22695C32.6786 9.49801 33.5932 10.7255 34.2134 12.2227C34.2367 12.2812 34.26 12.3426 34.2846 12.4025C34.3093 12.4624 34.3408 12.5496 34.3681 12.6246C34.3955 12.6995 34.412 12.7431 34.4325 12.803C34.4736 12.9229 34.5133 13.0442 34.5502 13.1668C34.5667 13.2199 34.5817 13.2744 34.5968 13.3289C34.6255 13.4297 34.6516 13.5305 34.6776 13.634C34.6885 13.679 34.7009 13.724 34.7118 13.7703C34.7447 13.9065 34.7748 14.0523 34.8022 14.1967C34.8118 14.2457 34.82 14.2948 34.8282 14.3452C34.8515 14.4814 34.8734 14.6176 34.8925 14.7539C34.8925 14.7811 34.9007 14.807 34.9035 14.8343C34.9268 15.0182 34.9473 15.2048 34.961 15.3969L34.9802 15.6421C34.9952 15.8546 35.0103 16.0508 35.0103 16.2361C35.0103 18.168 34.239 20.0208 32.866 21.3869C31.4931 22.753 29.631 23.5205 27.6893 23.5205C25.7477 23.5205 23.8856 22.753 22.5127 21.3869C21.1397 20.0208 20.3684 18.168 20.3684 16.2361C20.3684 16.074 20.3684 15.9405 20.3752 15.8274C20.3752 15.8015 20.3752 15.777 20.3752 15.7511C20.3848 15.4228 20.4054 15.119 20.4341 14.8315C20.456 14.5986 20.4848 14.3792 20.5176 14.1708C20.5176 14.1558 20.5176 14.1408 20.5245 14.1245C20.5354 14.0632 20.545 14.0019 20.556 13.9419C20.5628 13.9092 20.5683 13.8779 20.5751 13.8452C20.5888 13.7744 20.6025 13.709 20.6176 13.6368C20.6327 13.5646 20.6395 13.5346 20.6518 13.4842C20.6518 13.4569 20.6655 13.4297 20.671 13.4024C20.6902 13.3262 20.7093 13.2512 20.7299 13.179C20.7819 13.2526 20.8367 13.3234 20.8914 13.3956L20.938 13.4515C20.9818 13.5073 21.0283 13.5632 21.0749 13.6177L21.1173 13.6667C21.2468 13.8137 21.3839 13.9537 21.5281 14.0863H21.5349C21.6075 14.1545 21.6814 14.2226 21.7581 14.2825L21.7691 14.2907C22.0141 14.4939 22.2782 14.6732 22.5577 14.8261C22.982 15.0578 23.4383 15.2263 23.9118 15.3261C24.4534 15.441 25.0181 15.3711 25.5149 15.1277C26.0117 14.8843 26.4116 14.4814 26.6501 13.9842C26.6887 13.904 26.7225 13.8217 26.7515 13.7376C26.7802 13.6545 26.8049 13.5686 26.8254 13.4828C26.8453 13.3956 26.8604 13.3074 26.8706 13.2185C26.8802 13.1286 26.8856 13.0387 26.887 12.9461C26.8884 12.8534 26.887 12.7281 26.887 12.6137C26.887 12.6014 26.887 12.5891 26.887 12.5769C26.887 12.4624 26.887 12.3439 26.887 12.2227C26.9295 10.9734 27.0294 9.39992 27.3744 8.0444ZM41.5426 41.882C41.5422 42.3667 41.3485 42.8315 41.004 43.1743C40.6595 43.5171 40.1924 43.7098 39.7052 43.7102H4.57095C4.08375 43.7098 3.6166 43.5171 3.2721 43.1743C2.92759 42.8315 2.73389 42.3667 2.73353 41.882V16.6598C2.73389 16.175 2.92759 15.7102 3.2721 15.3674C3.6166 15.0246 4.08375 14.8319 4.57095 14.8315H17.9573C17.9354 15.104 17.9176 15.3846 17.9094 15.6803C17.8984 15.8642 17.8971 16.0481 17.8971 16.2334C17.8971 18.8167 18.9285 21.2943 20.7643 23.1211C22.6002 24.9478 25.0903 25.974 27.6866 25.974C30.283 25.974 32.773 24.9478 34.6089 23.1211C36.4448 21.2943 37.4762 18.8167 37.4762 16.2334C37.4762 15.9609 37.457 15.7116 37.4392 15.4609L37.42 15.2062C37.4104 15.0795 37.3995 14.9555 37.3858 14.8315H39.7134C40.2006 14.8319 40.6677 15.0246 41.0122 15.3674C41.3567 15.7102 41.5504 16.175 41.5508 16.6598L41.5426 41.882Z" fill="#E93D07"/>
</svg>
