<svg width="50" height="50" viewBox="0 0 50 50" fill="none" xmlns="http://www.w3.org/2000/svg">
<path d="M49.9082 44.4028L48.0311 38.8547C47.7763 38.102 47.0717 37.7446 46.4568 38.0565C45.8428 38.3687 45.5511 39.2319 45.8058 39.9854L46.5692 42.2419L42.4985 40.1777V18.1796C42.4985 17.5592 42.1822 17.005 41.7062 16.7926L26.2045 9.8728V5.03893L27.6142 6.76646C27.8494 7.05467 28.1577 7.1987 28.4661 7.1987C28.7742 7.1987 29.0825 7.05452 29.3178 6.76646C29.7883 6.1899 29.7883 5.25562 29.3178 4.67934L25.8517 0.432312C25.3812 -0.143961 24.619 -0.144247 24.1485 0.432312L20.6822 4.67934C20.2119 5.25562 20.2119 6.1899 20.6822 6.76646C21.1525 7.34259 21.9153 7.34288 22.386 6.76646L23.7956 5.03893V9.8728L8.29396 16.7928C7.81808 17.0052 7.50167 17.5593 7.50167 18.1797V40.1777L3.43096 42.2419L4.19436 39.9854C4.44925 39.2322 4.15755 38.3687 3.54326 38.0565C2.92805 37.7442 2.22383 38.1017 1.96906 38.8547L0.0919589 44.4028C-0.0305947 44.7644 -0.0305947 45.171 0.0916094 45.5328C0.21393 45.8943 0.44832 46.1818 0.74352 46.3316L5.2716 48.6315C5.42234 48.7082 5.57856 48.7444 5.73222 48.7444C6.20461 48.7444 6.65324 48.4017 6.84534 47.833C7.10011 47.0804 6.80864 46.2168 6.19389 45.9045L4.35233 44.9691L8.68364 42.7725L24.588 49.872C24.588 49.872 24.8146 49.9612 25.0017 49.9612C25.1888 49.9612 25.412 49.872 25.412 49.872L41.3163 42.7725L45.6476 44.9691L43.806 45.9045C43.1914 46.2168 42.9 47.0802 43.1545 47.833C43.3467 48.4016 43.7952 48.7444 44.2676 48.7444C44.4214 48.7444 44.5775 48.7082 44.7284 48.6315L49.2565 46.3316C49.5515 46.1818 49.7859 45.8945 49.9084 45.5328C50.0306 45.1709 50.0306 44.7644 49.9082 44.4028ZM23.7955 46.3773L11.9783 41.1026L23.7955 35.2311V46.3773ZM23.7955 32.0481L9.91057 38.9153V20.455L23.7955 27.3217V32.0481ZM23.7955 24.1389L11.9736 18.2919L23.7955 13.0147V24.1389ZM26.2045 13.0147L38.0265 18.2919L26.2045 24.1389V13.0147ZM26.2045 46.3773V35.2311L38.0217 41.1026L26.2045 46.3773ZM40.0893 38.9153L26.2045 32.0481V27.3219L40.0895 20.4551V38.9153H40.0893Z" fill="#101D23"/>
</svg>
