<svg width="47" height="47" viewBox="0 0 47 47" fill="none" xmlns="http://www.w3.org/2000/svg">
<path d="M0.103027 4.37717V41.8235C0.10339 42.9843 0.566986 44.0975 1.3919 44.9183C2.21682 45.7391 3.33555 46.2003 4.50216 46.2007H42.1365C43.3019 46.1985 44.4189 45.7365 45.2423 44.9159C46.0657 44.0953 46.5284 42.9831 46.5288 41.8235V4.37717C46.5284 3.21756 46.0657 2.10545 45.2423 1.28485C44.4189 0.464241 43.3019 0.00216474 42.1365 0L4.50216 0C3.33555 0.000361109 2.21682 0.461642 1.3919 1.28244C0.566986 2.10324 0.10339 3.21638 0.103027 4.37717H0.103027ZM30.2439 43.4869L24.9123 34.8661L30.5958 25.6786L36.2778 34.8661L30.9449 43.4869H30.2439ZM15.6855 43.4869L10.354 34.8661L16.036 25.6786L21.7181 34.8661L16.3865 43.4869H15.6855ZM30.9463 2.70695L36.286 11.3169L30.5985 20.514L24.9123 11.3264L30.2439 2.70695H30.9463ZM39.4789 11.3155L43.8082 4.31586V18.3015L39.4789 11.3155ZM43.57 23.0751L37.8742 32.2872L32.1922 23.0997L37.8825 13.8958L43.57 23.0751ZM37.8797 8.73662L34.1419 2.70695H41.6093L37.8797 8.73662ZM28.9925 23.0969L23.3159 32.2872L17.6284 23.0969L23.3104 13.9094L28.9925 23.0969ZM23.3159 8.7448L19.5808 2.70695H27.051L23.3159 8.7448ZM21.7181 11.3332L16.036 20.5208L10.354 11.3264L15.6855 2.70695H16.3865L21.7181 11.3332ZM14.4396 23.1038L8.75617 32.2872L3.07412 23.0969L8.75617 13.9094L14.4396 23.1038ZM8.75617 8.7448L5.02245 2.70695H12.4913L8.75617 8.7448ZM7.15972 11.3332L2.82356 18.3383V4.31586L7.15972 11.3332ZM7.15972 34.8729L2.82356 41.8767V27.8556L7.15972 34.8729ZM8.75617 37.4614L12.4913 43.4992H5.02245L8.75617 37.4614ZM23.3159 37.4614L27.051 43.4992H19.5808L23.3159 37.4614ZM37.8742 37.4614L41.6093 43.4992H34.1405L37.8742 37.4614ZM39.4721 34.8729L43.8082 27.8624V41.8767L39.4721 34.8729Z" fill="#E93D07"/>
</svg>
