<svg width="47" height="39" viewBox="0 0 47 39" fill="none" xmlns="http://www.w3.org/2000/svg">
<path d="M46.6583 9.52405V6.82936C46.6583 5.28857 45.4342 4.03658 43.9309 4.03658H31.262V3.72461C31.262 1.67158 29.6299 0 27.6268 0H3.74308C1.73725 0 0.106567 1.67158 0.106567 3.72461V29.9876C0.106567 32.042 1.73725 33.7122 3.74308 33.7122H5.68319C6.3089 36.6317 8.85418 38.8264 11.8896 38.8264C14.9251 38.8264 17.469 36.6344 18.0947 33.715H31.3907C32.0164 36.6344 34.5617 38.8264 37.5957 38.8264C40.6627 38.8264 43.2285 36.5895 43.8213 33.6237C44.6367 33.4242 45.3605 32.9566 45.8754 32.2966C46.3904 31.6367 46.6662 30.8231 46.6583 29.9876V19.7892C46.6577 19.5732 46.6086 19.36 46.5145 19.1653L43.3545 12.3182H43.9309C45.437 12.3182 46.6583 11.0648 46.6583 9.52405ZM11.8896 36.0295C9.88653 36.0295 8.2627 34.3607 8.2627 32.3158C8.2627 30.271 9.88105 28.6089 11.8896 28.6089C13.8982 28.6089 15.5138 30.2805 15.5138 32.3226C15.5138 34.3648 13.8968 36.0295 11.8896 36.0295ZM28.5346 30.9249H18.0947C17.469 28.0054 14.9237 25.8148 11.8896 25.8148C8.85555 25.8148 6.3089 27.9986 5.68319 30.9249H3.74308C3.49856 30.9213 3.26548 30.8213 3.09501 30.6468C2.92455 30.4724 2.83066 30.2377 2.83395 29.9944V3.72461C2.83102 3.48142 2.92503 3.24697 3.09542 3.07259C3.2658 2.89821 3.49868 2.79809 3.74308 2.79414H27.6268C27.8712 2.79809 28.1041 2.89821 28.2745 3.07259C28.4449 3.24697 28.5389 3.48142 28.536 3.72461L28.5346 30.9249ZM31.262 12.3182H40.3382L43.1409 18.3915H31.262V12.3182ZM37.5957 36.0295C35.5981 36.0295 33.9716 34.3634 33.9716 32.3158C33.9716 30.2683 35.594 28.6089 37.5957 28.6089C39.5975 28.6089 41.2227 30.2805 41.2227 32.3226C41.2227 34.3648 39.6002 36.0295 37.5957 36.0295ZM43.9309 21.1801V29.9808C43.9314 30.1975 43.857 30.4077 43.72 30.5761C42.9793 27.827 40.5134 25.8012 37.5957 25.8012C34.5617 25.8012 32.0164 27.9918 31.3907 30.9113H31.262V21.187L43.9309 21.1801ZM31.262 9.52405V6.82936H43.9309V9.52405H31.262Z" fill="#E93D07"/>
</svg>
