<svg width="47" height="48" viewBox="0 0 47 48" fill="none" xmlns="http://www.w3.org/2000/svg">
<path d="M20.2398 26.7304C19.9591 26.6795 13.3232 25.5261 9.73835 29.1279C6.80911 32.0708 7.0431 37.0608 7.25295 38.9344L6.08768 40.1051C5.55121 40.6441 5.55323 41.5159 6.09217 42.0523C6.6312 42.5887 7.50291 42.5869 8.03946 42.0478L9.20133 40.8806C9.69456 40.9361 10.4014 40.9929 11.2292 40.9929C13.5464 40.9929 16.8084 40.5474 18.9656 38.3801C22.5467 34.7822 21.4001 28.1237 21.3495 27.842C21.2479 27.2762 20.8055 26.8329 20.2398 26.7304ZM17.0138 36.4373C15.681 37.7764 13.5681 38.1655 11.8399 38.2297L15.9006 34.1501C16.437 33.6111 16.435 32.7393 15.8961 32.2028C15.357 31.6664 14.4853 31.6685 13.9488 32.2073L9.90275 36.2723C9.98096 34.4628 10.4086 32.3582 11.6902 31.0707C13.5871 29.1648 17.0653 29.1823 18.7636 29.3238C18.9268 31.2845 18.7938 34.6489 17.0138 36.4373Z" fill="#101D23"/>
<path d="M45.623 21.031H44.2301L40.4958 2.07202C40.3687 1.42659 39.8028 0.961182 39.1448 0.961182H32.764C32.1061 0.961182 31.5402 1.42659 31.4131 2.07202L27.6788 21.031H24.9799V11.2432C24.9799 10.0191 23.4927 9.40209 22.627 10.2718L13.867 19.0727V11.2432C13.867 10.0192 12.3798 9.402 11.5142 10.2718L0.405742 21.4321C0.140725 21.6958 0 22.0581 0 22.408V46.5842C0 47.3447 0.616508 47.9612 1.37695 47.9612H45.623C46.3835 47.9612 47 47.3447 47 46.5842V22.408C47 21.6475 46.3835 21.031 45.623 21.031ZM33.8963 3.71509H38.0127L41.4233 21.031H30.4857L33.8963 3.71509ZM22.226 21.031H15.8034L22.226 14.5784V21.031ZM11.1131 21.031H4.69055L11.1131 14.5784V21.031ZM33.172 45.2073V31.0108H38.737V45.2073H33.172ZM44.2461 45.2073H41.4909V29.6338C41.4909 28.8734 40.8744 28.2569 40.1139 28.2569H31.795C31.0346 28.2569 30.4181 28.8734 30.4181 29.6338V45.2073H2.75391V23.7849H44.2461V45.2073Z" fill="#101D23"/>
</svg>
