<svg width="39" height="47" viewBox="0 0 39 47" fill="none" xmlns="http://www.w3.org/2000/svg">
<path d="M31.2208 29.0544H31.1236C30.3966 29.0544 29.7859 29.5735 29.7325 30.2288C29.6504 31.5565 29.2007 32.8357 28.4332 33.9248C27.6365 35.0731 26.5506 35.993 25.2841 36.5922C24.9667 36.7526 24.7246 37.0297 24.6091 37.3647C24.5539 37.52 24.5355 37.6859 24.5555 37.8494C24.5754 38.013 24.6331 38.1697 24.7241 38.3074C24.8647 38.5275 25.0589 38.7087 25.2887 38.8342C25.5185 38.9597 25.7764 39.0254 26.0385 39.0253C26.2768 39.0253 26.5116 38.9683 26.7231 38.8591C28.3898 38.0513 29.8166 36.8259 30.8634 35.3035C31.9008 33.8615 32.485 32.1456 32.542 30.3732C32.605 29.7015 32.0081 29.1048 31.2208 29.0544Z" fill="#E93D07"/>
<path d="M25.2438 7.11273C24.4798 6.11686 23.7857 5.18775 23.1148 4.28862L22.1961 3.06252C22.0705 2.9029 21.917 2.7672 21.7429 2.66199C21.5747 2.56361 21.3885 2.49969 21.1952 2.47399V1.15798C21.1952 0.850865 21.0726 0.556328 20.8543 0.339165C20.6361 0.122001 20.3401 0 20.0314 0C19.7228 0 19.4267 0.122001 19.2085 0.339165C18.9902 0.556328 18.8676 0.850865 18.8676 1.15798V2.49306C16.8536 3.038 15.1558 3.95484 13.8017 5.2259C9.74349 9.04042 9.93243 14.9652 10.0118 17.4964C10.0214 17.7771 10.0283 18.0195 10.0283 18.1994C10.0283 20.0794 10.3596 21.815 10.6512 23.3463C10.8388 24.3326 11.0018 25.184 11.0305 25.8543C11.062 26.5723 10.9182 26.7357 10.9114 26.7425C10.9045 26.7494 10.7211 26.8474 10.2597 26.8474C10.0255 26.8579 9.79186 26.818 9.57469 26.7303C9.35751 26.6426 9.16195 26.5092 9.0014 26.3393C7.65961 24.9661 7.56651 21.2183 7.82391 19.1789C7.84531 18.9987 7.82552 18.816 7.76601 18.6445C7.7065 18.473 7.60882 18.3171 7.48025 18.1885C7.34396 18.0528 7.18188 17.9454 7.00347 17.8727C6.82505 17.7999 6.63386 17.7633 6.44106 17.7648C2.83193 17.7648 0.133301 23.1501 0.133301 27.9659C0.136706 30.2446 0.643384 32.4946 1.61748 34.5569C2.59032 36.6257 3.96112 38.4849 5.65242 40.0294C9.21225 43.3139 13.9058 45.1354 18.869 45.1653C18.869 45.4725 18.9916 45.767 19.2099 45.9842C19.4281 46.2013 19.7241 46.3233 20.0328 46.3233C20.3414 46.3233 20.6375 46.2013 20.8557 45.9842C21.074 45.767 21.1966 45.4725 21.1966 45.1653C25.6957 45.1149 29.9387 43.521 33.1658 40.6628C36.4436 37.7583 38.2496 33.9234 38.2496 29.8636C38.2455 24.0274 30.422 13.8495 25.2438 7.11273ZM2.91545 27.9659C2.91693 26.0259 3.39296 24.1154 4.30242 22.3994C4.48493 22.0617 4.6932 21.7383 4.92539 21.4322C4.94866 23.5247 5.31286 26.3774 6.92163 28.0259C7.35472 28.4678 7.87424 28.8166 8.44813 29.051C9.02202 29.2853 9.63808 29.4 10.2583 29.3882C11.4905 29.3882 12.4216 29.049 13.0391 28.3801C14.1933 27.1281 13.84 25.2685 13.391 22.9158C13.1171 21.4853 12.8091 19.8641 12.8091 18.2035C12.8091 17.9868 12.8008 17.728 12.7913 17.4269C12.716 15.0292 12.5571 10.039 15.7952 6.99829C16.6815 6.18586 17.7284 5.56642 18.869 5.17958V42.63C10.209 42.5646 2.91545 35.877 2.91545 27.9659ZM31.1737 38.9013C28.523 41.2486 24.9864 42.5619 21.1925 42.611V6.29124C21.1925 6.29124 21.1925 6.29124 21.1993 6.29805C21.5046 6.66997 21.8045 7.07322 22.1235 7.50099C22.359 7.81978 22.6041 8.1481 22.8615 8.47778L23.3188 9.08266C28.4025 15.803 35.3675 25.0056 35.3675 29.8623C35.3633 33.234 33.8764 36.4437 31.1737 38.9013Z" fill="#E93D07"/>
</svg>
