<svg width="39" height="47" viewBox="0 0 39 47" fill="none" xmlns="http://www.w3.org/2000/svg">
<path d="M37.448 19.1721H35.1738V17.2566C35.184 13.8309 34.053 10.4985 31.9576 7.78027C30.0916 5.3573 27.5588 3.52534 24.6668 2.50669L24.4518 1.14436C24.3999 0.825716 24.236 0.535765 23.9893 0.326184C23.7425 0.116602 23.429 0.00100643 23.1046 0L15.8302 0C15.5056 0.00105926 15.1919 0.116847 14.9451 0.326703C14.6984 0.536559 14.5345 0.826829 14.4829 1.14572L14.268 2.50805C11.3758 3.52644 8.84268 5.35788 6.97579 7.78027C4.88042 10.4985 3.74941 13.8309 3.75962 17.2566V19.1721H1.49228C1.12915 19.1721 0.780897 19.3156 0.524128 19.5711C0.267359 19.8266 0.123108 20.1731 0.123108 20.5344L0.123108 25.9619C0.123108 26.1408 0.158522 26.318 0.22733 26.4833C0.296137 26.6486 0.396989 26.7987 0.524128 26.9252C0.651267 27.0517 0.802203 27.1521 0.968318 27.2206C1.13443 27.289 1.31247 27.3243 1.49228 27.3243H2.35622C2.04304 29.5046 2.15366 31.7246 2.68208 33.8634C2.75582 34.1576 2.92607 34.4189 3.16588 34.606C3.4057 34.793 3.70136 34.8951 4.00607 34.8961H7.09217C7.53346 35.9466 8.10916 36.9362 8.805 37.8401L7.26195 40.4885C7.11011 40.7515 7.05082 41.0574 7.09348 41.3577C7.13614 41.658 7.2783 41.9356 7.49744 42.1464C9.51376 44.072 11.9674 45.4847 14.65 46.2647C14.9431 46.3481 15.2559 46.3317 15.5386 46.2182C15.8214 46.1047 16.0579 45.9005 16.2108 45.6381L17.7566 42.9747C18.893 43.1192 20.0432 43.1192 21.1795 42.9747L22.724 45.6381C22.8437 45.8444 23.0156 46.0158 23.2227 46.1353C23.4298 46.2549 23.6648 46.3183 23.9042 46.3192C24.033 46.3193 24.1612 46.3009 24.2848 46.2647C26.9669 45.4847 29.4201 44.0719 31.436 42.1464C31.6553 41.9357 31.7978 41.6583 31.8407 41.3579C31.8836 41.0576 31.8245 40.7516 31.6728 40.4885L30.1298 37.8292C30.8256 36.9253 31.4013 35.9357 31.8426 34.8852H34.9342C35.2389 34.8842 35.5346 34.7821 35.7744 34.5951C36.0142 34.408 36.1844 34.1467 36.2582 33.8525C36.7866 31.7137 36.8972 29.4937 36.584 27.3134H37.448C37.8111 27.3134 38.1594 27.1698 38.4161 26.9143C38.6729 26.6589 38.8172 26.3123 38.8172 25.951V20.529C38.8172 20.1676 38.6729 19.8211 38.4161 19.5656C38.1594 19.3102 37.8111 19.1666 37.448 19.1666V19.1721ZM2.85049 21.8858H5.12331C5.48643 21.8858 5.83469 21.7423 6.09146 21.4868C6.34822 21.2313 6.49248 20.8848 6.49248 20.5235V17.2539C6.50075 14.838 7.18621 12.4722 8.47178 10.4227C9.75735 8.37317 11.5921 6.72112 13.7696 5.65231L12.6647 12.6356C12.6098 12.9909 12.6984 13.3534 12.911 13.6441C13.1236 13.9347 13.443 14.13 13.7997 14.1873C13.8704 14.1981 13.9418 14.2035 14.0133 14.2037C14.3377 14.2023 14.651 14.0863 14.8975 13.8765C15.144 13.6667 15.3076 13.3766 15.3592 13.0579L17.0022 2.71376H21.9435L23.5865 13.0579C23.6381 13.3766 23.8017 13.6667 24.0482 13.8765C24.2947 14.0863 24.608 14.2023 24.9324 14.2037C25.0039 14.2036 25.0753 14.1981 25.146 14.1873C25.5014 14.1284 25.8192 13.9325 26.0304 13.642C26.2416 13.3515 26.3292 12.9899 26.2742 12.6356L25.1652 5.65231C27.3439 6.72076 29.1797 8.37299 30.4661 10.4231C31.7524 12.4732 32.4383 14.8398 32.4464 17.2566V20.5262C32.4464 20.7051 32.4818 20.8823 32.5506 21.0476C32.6194 21.2129 32.7203 21.363 32.8474 21.4895C32.9746 21.616 33.1255 21.7164 33.2916 21.7849C33.4577 21.8533 33.6358 21.8886 33.8156 21.8886H36.0884V24.6023H2.85049V21.8858ZM22.88 29.741C22.88 30.6414 22.5206 31.5049 21.8807 32.1416C21.2408 32.7783 20.373 33.136 19.4681 33.136C18.5632 33.136 17.6953 32.7783 17.0555 32.1416C16.4156 31.5049 16.0561 30.6414 16.0561 29.741C16.0548 29.2881 16.1454 28.8397 16.3226 28.4225C16.4997 28.0053 16.7598 27.6281 17.0871 27.3134H21.8491C22.1761 27.6283 22.436 28.0056 22.6131 28.4227C22.7903 28.8398 22.8811 29.2882 22.88 29.741ZM34.0305 29.741C34.0308 30.5555 33.9621 31.3685 33.8252 32.1714H30.8993C30.6134 32.1721 30.3349 32.2618 30.1029 32.428C29.8708 32.5941 29.6969 32.8283 29.6054 33.0978C29.149 34.4617 28.4175 35.7184 27.4558 36.7911C27.2662 37.0046 27.1486 37.2719 27.1196 37.5554C27.0906 37.8389 27.1517 38.1243 27.2942 38.3714L28.7565 40.8903C27.4944 41.9299 26.0662 42.7518 24.5313 43.3221L23.069 40.8018C22.9248 40.5575 22.7076 40.364 22.4478 40.2483C22.1879 40.1326 21.8982 40.1003 21.619 40.1561C20.2018 40.4421 18.7412 40.4421 17.324 40.1561C17.0434 40.0996 16.7521 40.132 16.491 40.2489C16.23 40.3657 16.0123 40.5609 15.8685 40.8072L14.4035 43.3221C12.8682 42.7502 11.44 41.9264 10.1783 40.8849L11.6405 38.3659C11.7831 38.1188 11.8442 37.8334 11.8152 37.5499C11.7862 37.2665 11.6686 36.9992 11.479 36.7856C10.5192 35.7162 9.78785 34.4639 9.32939 33.1046C9.23791 32.8351 9.06396 32.6009 8.83192 32.4348C8.59988 32.2686 8.3214 32.1789 8.03553 32.1782H5.10962C4.83487 30.5704 4.83487 28.928 5.10962 27.3202H13.8285C13.4251 28.2497 13.2601 29.2645 13.3485 30.2732C13.4369 31.2819 13.7758 32.2529 14.3349 33.099C14.8939 33.945 15.6555 34.6396 16.5511 35.1202C17.4468 35.6009 18.4484 35.8525 19.466 35.8525C20.4836 35.8525 21.4853 35.6009 22.3809 35.1202C23.2766 34.6396 24.0382 33.945 24.5972 33.099C25.1562 32.2529 25.4951 31.2819 25.5835 30.2732C25.6719 29.2645 25.507 28.2497 25.1036 27.3202H33.8224C33.9598 28.1222 34.0289 28.9343 34.0292 29.7478L34.0305 29.741Z" fill="#E93D07"/>
</svg>
