<svg width="44" height="47" viewBox="0 0 44 47" fill="none" xmlns="http://www.w3.org/2000/svg">
<path d="M38.2725 0.606531H33.8268C32.7993 0.607966 31.7995 0.93866 30.9756 1.54963C30.1517 2.16061 29.5475 3.01937 29.2524 3.99873H9.75411C9.16394 3.43017 8.45689 2.9957 7.68169 2.72525C6.90648 2.45481 6.08156 2.35483 5.26378 2.43221C4.446 2.50959 3.6548 2.76248 2.94472 3.17345C2.23464 3.58443 1.62256 4.14372 1.15067 4.81277C0.678783 5.48182 0.358303 6.24473 0.211321 7.04891C0.0643399 7.85309 0.0943519 8.67942 0.299289 9.47094C0.504226 10.2625 0.879214 11.0004 1.39841 11.6338C1.9176 12.2672 2.56866 12.7811 3.3067 13.14L8.26993 23.3765C7.9961 24.3302 8.05087 24.8288 8.05087 26.9281H4.9853C4.62218 26.9281 4.27392 27.0716 4.01715 27.3271C3.76038 27.5826 3.61613 27.9291 3.61613 28.2904V38.7804H1.49803C1.13491 38.7804 0.786653 38.9239 0.529884 39.1794C0.273115 39.4349 0.128864 39.7814 0.128864 40.1427V45.5634C0.128864 45.9247 0.273115 46.2713 0.529884 46.5267C0.786653 46.7822 1.13491 46.9258 1.49803 46.9258H26.1266C26.4897 46.9258 26.838 46.7822 27.0948 46.5267C27.3515 46.2713 27.4958 45.9247 27.4958 45.5634V40.1414C27.4958 39.78 27.3515 39.4335 27.0948 39.178C26.838 38.9226 26.4897 38.779 26.1266 38.779H23.9976V28.2891C23.9976 27.9278 23.8533 27.5813 23.5965 27.3258C23.3398 27.0703 22.9915 26.9268 22.6284 26.9268H19.571V24.9446C19.5751 23.7138 19.1792 22.5147 18.4425 21.526C17.7057 20.5373 16.6675 19.8121 15.4827 19.4585L11.8886 12.1414H29.0484V17.7147C29.0484 18.076 29.1927 18.4225 29.4494 18.678C29.7062 18.9335 30.0545 19.077 30.4176 19.077H31.9606V23.1476C31.9606 23.509 32.1049 23.8555 32.3617 24.111C32.6184 24.3664 32.9667 24.51 33.3298 24.51H34.699V28.7019C34.682 28.8903 34.7046 29.0801 34.7654 29.2594C34.8262 29.4386 34.9239 29.6033 35.0522 29.7429C35.1805 29.8825 35.3366 29.994 35.5105 30.0703C35.6845 30.1465 35.8725 30.1859 36.0627 30.1859C36.2528 30.1859 36.4408 30.1465 36.6148 30.0703C36.7888 29.994 36.9449 29.8825 37.0731 29.7429C37.2014 29.6033 37.2991 29.4386 37.3599 29.2594C37.4207 29.0801 37.4433 28.8903 37.4264 28.7019V24.5004H38.7955C39.1586 24.5004 39.5069 24.3569 39.7637 24.1014C40.0204 23.8459 40.1647 23.4994 40.1647 23.1381V19.0729H41.7091C42.0722 19.0729 42.4205 18.9294 42.6773 18.6739C42.934 18.4184 43.0783 18.0719 43.0783 17.7106V5.35425C43.0776 4.7281 42.9525 4.10826 42.7103 3.53034C42.4682 2.95241 42.1136 2.4278 41.667 1.98663C41.2205 1.54546 40.6907 1.19642 40.1082 0.959584C39.5256 0.722744 38.9018 0.602762 38.2725 0.606531ZM5.81091 5.12947C6.39562 5.1292 6.96727 5.30147 7.45357 5.6245C7.93986 5.94753 8.31896 6.4068 8.5429 6.94422C8.76685 7.48164 8.82558 8.07308 8.71168 8.64372C8.59777 9.21436 8.31635 9.73857 7.90299 10.1501C7.48964 10.5615 6.96293 10.8418 6.38947 10.9554C5.81602 11.069 5.22159 11.0108 4.68137 10.7882C4.14115 10.5657 3.6794 10.1887 3.35452 9.70496C3.02965 9.22124 2.85625 8.65253 2.85625 8.07074C2.85607 7.68455 2.93236 7.30211 3.08076 6.94527C3.22917 6.58842 3.44678 6.26417 3.72116 5.99103C3.99555 5.71789 4.32133 5.50121 4.67989 5.35339C5.03846 5.20556 5.42278 5.12947 5.81091 5.12947ZM24.7629 44.212H2.85625V41.4982H24.7629V44.212ZM21.2702 38.7831H6.34625V29.646H21.2702V38.7831ZM16.8409 24.9446V26.9322H10.7782V24.9446C10.7782 24.5485 10.8567 24.1563 11.009 23.7903C11.1613 23.4244 11.3846 23.0919 11.6661 22.8118C11.9476 22.5317 12.2818 22.3095 12.6495 22.158C13.0173 22.0064 13.4115 21.9284 13.8096 21.9284C14.2077 21.9284 14.6018 22.0064 14.9696 22.158C15.3374 22.3095 15.6716 22.5317 15.9531 22.8118C16.2346 23.0919 16.4578 23.4244 16.6102 23.7903C16.7625 24.1563 16.8409 24.5485 16.8409 24.9446ZM9.97865 20.66L6.58996 13.6726C7.50073 13.5503 8.36754 13.2079 9.11471 12.6754L12.4076 19.3835C11.5065 19.6084 10.6733 20.0463 9.97865 20.66ZM29.0457 9.42762H11.3287C11.5491 8.53587 11.5491 7.60425 11.3287 6.7125H29.0484C29.0471 7.39366 29.0457 8.30097 29.0457 9.42762ZM37.4086 21.7867H34.6812V19.0729H37.4086V21.7867ZM40.3167 16.3592H31.7744V5.46051V5.41828C31.7744 5.38422 31.7744 5.35153 31.7744 5.31747C31.787 4.78381 32.0088 4.2762 32.3926 3.90323C32.7765 3.53025 33.2917 3.32151 33.8282 3.32166H38.2739C38.8152 3.32416 39.3337 3.53926 39.7165 3.92016C40.0993 4.30106 40.3155 4.81695 40.318 5.35562L40.3167 16.3592Z" fill="#E93D07"/>
<path d="M11.0814 35.5722C11.8345 35.5722 12.4451 34.9647 12.4451 34.2153C12.4451 33.4659 11.8345 32.8584 11.0814 32.8584C10.3283 32.8584 9.71771 33.4659 9.71771 34.2153C9.71771 34.9647 10.3283 35.5722 11.0814 35.5722Z" fill="#E93D07"/>
<path d="M16.5344 35.5722C17.2876 35.5722 17.8981 34.9647 17.8981 34.2153C17.8981 33.4659 17.2876 32.8584 16.5344 32.8584C15.7813 32.8584 15.1707 33.4659 15.1707 34.2153C15.1707 34.9647 15.7813 35.5722 16.5344 35.5722Z" fill="#E93D07"/>
</svg>
