<svg width="18" height="18" viewBox="0 0 18 18" fill="none" xmlns="http://www.w3.org/2000/svg">
<rect width="18" height="18" fill="white"/>
<path fill-rule="evenodd" clip-rule="evenodd" d="M4.10292 8.20429C5.80841 10.2888 7.71757 12.1979 9.80205 13.9034L10.3418 14.3451C11.2365 15.0771 12.5402 15.012 13.3576 14.1947L14.6198 12.9324L12.2333 10.546L10.2446 12.5347L5.46324 7.75333L7.45861 5.77122L5.07389 3.3865L3.81168 4.64872C2.99431 5.46609 2.92928 6.76984 3.66127 7.66449L4.10292 8.20429ZM8.8522 15.0644C6.69051 13.2957 4.71064 11.3158 2.94198 9.15414L2.50033 8.61435C1.28036 7.12327 1.38873 4.95035 2.75102 3.58806L5.07389 1.26518L9.58347 5.77476L7.5881 7.75687L10.2446 10.4134L12.2333 8.42464L16.7412 12.9324L14.4183 15.2553C13.056 16.6176 10.8831 16.726 9.39199 15.506L8.8522 15.0644Z" fill="#E93D07"/>
</svg>
