<svg width="47" height="53" viewBox="0 0 47 53" fill="none" xmlns="http://www.w3.org/2000/svg">
<path d="M9.9375 0C8.11562 0 6.625 1.49062 6.625 3.3125V49.6875C6.625 51.5094 8.11562 53 9.9375 53H43.0625C44.8844 53 46.375 51.5094 46.375 49.6875V13.25L33.125 0H9.9375Z" fill="#E2E5E7"/>
<path d="M36.4375 13.25H46.375L33.125 0V9.9375C33.125 11.7594 34.6156 13.25 36.4375 13.25Z" fill="#B0B7BD"/>
<path d="M46.375 23.1875L36.4375 13.25H46.375V23.1875Z" fill="#CAD1D8"/>
<path d="M39.75 43.0625C39.75 43.9734 39.0047 44.7188 38.0938 44.7188H1.65625C0.745312 44.7188 0 43.9734 0 43.0625V26.5C0 25.5891 0.745312 24.8438 1.65625 24.8438H38.0938C39.0047 24.8438 39.75 25.5891 39.75 26.5V43.0625Z" fill="#F15642"/>
<path d="M7.60547 31.3808C7.60547 30.9436 7.94997 30.4666 8.50481 30.4666H11.5639C13.2864 30.4666 14.8367 31.6193 14.8367 33.8287C14.8367 35.9222 13.2864 37.0882 11.5639 37.0882H9.35281V38.8372C9.35281 39.4202 8.98347 39.7498 8.50647 39.7498C8.06922 39.7498 7.60712 39.4202 7.60712 38.8372V31.3808H7.60547ZM9.35281 32.1344V35.4336H11.5639C12.4517 35.4336 13.1539 34.6502 13.1539 33.8287C13.1539 32.9029 12.4517 32.1344 11.5639 32.1344H9.35281Z" fill="white"/>
<path d="M16.5242 31.3808C16.5242 30.9436 16.8687 30.4666 17.4252 30.4666H20.4843C22.2068 30.4666 23.7571 31.6193 23.7571 33.8287C23.7571 35.9222 22.2068 37.0882 20.4843 37.0882H18.2732V38.8372C18.2732 39.4202 17.9022 39.7498 17.4252 39.7498C16.988 39.7498 16.5242 39.4202 16.5242 38.8372V31.3808ZM18.2716 32.1344V35.4336H20.4827C21.3704 35.4336 22.0727 34.6502 22.0727 33.8287C22.0727 32.9029 21.3704 32.1344 20.4827 32.1344H18.2716Z" fill="white"/>
<path d="M27.9179 32.2422H25.6024C24.4497 32.2422 24.4497 30.5479 25.6024 30.5479H31.8647C33.0439 30.5479 33.0439 32.2422 31.8647 32.2422H29.6669V38.9301C29.6669 40.0812 27.9179 40.1094 27.9179 38.9301V32.2422Z" fill="white"/>
<path d="M38.0938 44.7188H6.625V46.375H38.0938C39.0047 46.375 39.75 45.6297 39.75 44.7188V43.0625C39.75 43.9734 39.0047 44.7188 38.0938 44.7188Z" fill="#CAD1D8"/>
</svg>
