<svg width="48" height="47" viewBox="0 0 48 47" fill="none" xmlns="http://www.w3.org/2000/svg">
<path d="M47.1515 24.9306C47.1432 24.7797 47.1103 24.6311 47.0543 24.4906C47.05 24.4779 47.0445 24.4656 47.0378 24.4538C47.0296 24.4361 47.0201 24.4211 47.0132 24.4075C46.875 24.1384 46.6564 23.9185 46.3875 23.7781C46.3434 23.7532 46.2977 23.7314 46.2506 23.7127C46.0898 23.6486 45.9185 23.6144 45.7454 23.6119H37.6727C36.6651 23.6094 35.6995 23.21 34.987 22.5011C34.2745 21.7921 33.8731 20.8313 33.8706 19.8287V1.41137C33.8703 1.37479 33.8666 1.33831 33.8596 1.30239C33.8498 1.17927 33.824 1.05792 33.7829 0.94137C33.7788 0.923418 33.7738 0.905685 33.7679 0.88824C33.7623 0.872028 33.7559 0.856113 33.7487 0.840558C33.6821 0.68946 33.5894 0.551137 33.4749 0.431859C33.4448 0.401888 33.4119 0.374641 33.379 0.347394C33.2958 0.273885 33.2038 0.210752 33.1052 0.159393C32.9036 0.0545891 32.6795 -9.94574e-05 32.4521 1.35783e-07H26.7564C26.5601 0.000493102 26.3661 0.041419 26.1866 0.1202C26.007 0.19898 25.8458 0.313908 25.7131 0.457743L12.8237 14.6737L12.7895 14.7145C12.7621 14.754 12.7375 14.7935 12.7142 14.8344C12.5791 15.0036 12.4976 15.2089 12.4801 15.4243C12.4683 15.4728 12.4591 15.5219 12.4527 15.5714C12.4527 15.5905 12.4527 15.6096 12.4527 15.6287V26.3774L0.52038 38.2433C0.258244 38.5077 0.110766 38.8638 0.10963 39.2351V44.9024C0.108909 45.0882 0.145066 45.2723 0.216027 45.4442C0.286989 45.6161 0.391357 45.7723 0.523145 45.9039C0.654933 46.0356 0.811546 46.14 0.983999 46.2113C1.15645 46.2825 1.34135 46.3192 1.52809 46.3192H31.9031C32.0915 46.319 32.2778 46.2805 32.4507 46.2062C32.4816 46.1941 32.511 46.1786 32.5384 46.1598C32.6632 46.0981 32.7781 46.0182 32.8793 45.9228L32.9258 45.8806L41.0477 37.3565L46.7435 31.6892C46.8746 31.5578 46.9784 31.402 47.0489 31.2306C47.1193 31.0592 47.1552 30.8757 47.1542 30.6906V25.0233C47.1558 24.9924 47.1549 24.9614 47.1515 24.9306ZM33.3229 41.3726V39.8046L41.0477 31.6892L44.3214 28.4318V30.1075L39.0159 35.3865L33.3229 41.3726ZM4.95374 37.8306L12.4499 30.3718V34.0501C12.4467 35.0525 12.0451 36.0128 11.3327 36.7216C10.6204 37.4304 9.65516 37.83 8.64776 37.8333L4.95374 37.8306ZM29.2263 2.81866L18.9398 14.2132H17.0873L27.3752 2.81866H29.2263ZM15.2869 34.046V17.04H18.1443V34.046C18.1494 35.7967 18.8506 37.4742 20.0949 38.712C21.3392 39.9498 23.0253 40.6473 24.7848 40.6519H30.4846V43.4965H2.94654V40.6519H8.64776C10.4071 40.6473 12.0931 39.9498 13.3371 38.7119C14.5812 37.4741 15.2822 35.7966 15.2869 34.046ZM24.7848 37.8292C23.7773 37.8263 22.8118 37.4268 22.0994 36.7179C21.387 36.0091 20.9855 35.0485 20.9826 34.046V16.1763L31.0336 5.04062V19.8301C31.0332 21.456 31.6356 23.0249 32.7255 24.2363C33.8154 25.4476 35.3161 26.2164 36.9402 26.3951C37.0082 26.4126 37.0773 26.4253 37.147 26.4333H37.1963H42.3142L39.0159 29.7151L31.2938 37.8265L24.7848 37.8292Z" fill="#E93D07"/>
</svg>
