<svg width="38" height="45" viewBox="0 0 38 45" fill="none" xmlns="http://www.w3.org/2000/svg">
<path d="M37.2876 11.4406C37.2648 10.241 37.243 9.10771 37.243 8.01136C37.243 7.15244 36.5469 6.4561 35.6878 6.4561C29.0365 6.4561 23.9723 4.54459 19.7512 0.440371C19.1473 -0.146894 18.1864 -0.146687 17.5827 0.440371C13.362 4.54459 8.29867 6.4561 1.64778 6.4561C0.788862 6.4561 0.0925223 7.15244 0.0925223 8.01136C0.0925223 9.10792 0.070956 10.2416 0.0479382 11.4414C-0.165236 22.6053 -0.457208 37.8947 18.1575 44.3469C18.3226 44.4041 18.4947 44.4328 18.6668 44.4328C18.839 44.4328 19.0113 44.4041 19.1761 44.3469C37.7923 37.8945 37.5008 22.6046 37.2876 11.4406ZM18.667 41.2271C2.70245 35.4276 2.94382 22.7232 3.15804 11.5007C3.17089 10.8272 3.18333 10.1744 3.19204 9.53447C9.42136 9.27153 14.4027 7.38386 18.667 3.66908C22.9318 7.38386 27.914 9.27174 34.1437 9.53447C34.1524 10.1742 34.1649 10.8266 34.1777 11.4997C34.3917 22.7226 34.6329 35.4274 18.667 41.2271Z" fill="#101D23"/>
<path d="M24.022 16.8137L16.5155 24.3198L13.3123 21.1166C12.7049 20.5094 11.7202 20.5094 11.113 21.1166C10.5056 21.7242 10.5056 22.7087 11.113 23.3161L15.4159 27.619C15.7195 27.9226 16.1176 28.0744 16.5155 28.0744C16.9135 28.0744 17.3116 27.9226 17.6152 27.619L26.2212 19.0133C26.8287 18.4059 26.8287 17.4211 26.2214 16.8139C25.6142 16.2065 24.6294 16.2063 24.022 16.8137Z" fill="#101D23"/>
</svg>
