<svg width="49" height="40" viewBox="0 0 49 40" fill="none" xmlns="http://www.w3.org/2000/svg">
<path d="M48.8933 9.64273V6.91501C48.8933 5.35456 47.6079 4.0864 46.0284 4.0864H32.7232V3.77148C32.7232 1.69245 31.009 0 28.9034 0H3.81979C1.71317 0 0 1.69245 0 3.77148V30.3604C0 32.4404 1.71317 34.1319 3.81979 34.1319H5.85669C6.51465 37.0878 9.18754 39.3064 12.3752 39.3064C15.5628 39.3064 18.2357 37.0878 18.8927 34.1319H32.8578C33.5148 37.0878 36.1877 39.3064 39.3753 39.3064C42.5964 39.3064 45.2912 37.0416 45.9138 34.0395C47.6175 33.6605 48.8933 32.1556 48.8933 30.3604V20.036C48.8933 19.8051 48.8261 19.5531 48.7424 19.4043L45.424 12.4713H46.0284C47.6079 12.4713 48.8933 11.2022 48.8933 9.64273ZM12.3752 36.4777C10.2726 36.4777 8.56683 34.7881 8.56683 32.7176C8.56683 30.6535 10.2665 28.9584 12.3752 28.9584C14.4801 28.9584 16.1825 30.6503 16.1825 32.7176C16.1825 34.7819 14.4843 36.4777 12.3752 36.4777ZM29.8583 31.3033H18.8927C18.2357 28.3474 15.5628 26.1298 12.3752 26.1298C9.18754 26.1298 6.51465 28.3474 5.85669 31.3033H3.81979C3.29361 31.3033 2.86484 30.8809 2.86484 30.3604V3.77148C2.86484 3.25196 3.29361 2.82861 3.81979 2.82861H28.9034C29.4296 2.82861 29.8583 3.25196 29.8583 3.77148V31.3033ZM32.7232 12.4713H42.2554L45.1995 18.6217L45.1996 18.6219H32.7232C32.7232 17.7037 32.7232 13.3901 32.7232 12.4713ZM39.3753 36.4777C37.2766 36.4777 35.5679 34.7909 35.5679 32.7176C35.5679 30.6493 37.2721 28.9584 39.3753 28.9584C41.4814 28.9584 43.1836 30.6507 43.1836 32.7176C43.1836 34.7855 41.4806 36.4777 39.3753 36.4777ZM46.0284 21.4506V30.3605C46.0284 30.5896 45.9454 30.8008 45.8078 30.9639C45.0286 28.1796 42.4397 26.1298 39.3753 26.1298C36.1877 26.1298 33.5148 28.3475 32.8578 31.3034H32.7232V21.4506H46.0284ZM32.7232 9.64273V6.91501H46.0284V9.64273C44.7178 9.64273 34.032 9.64273 32.7232 9.64273Z" fill="#101D23"/>
</svg>
