<svg width="47" height="47" viewBox="0 0 47 47" fill="none" xmlns="http://www.w3.org/2000/svg">
<path d="M46.5795 41.1657L44.8311 36.0229C44.5942 35.324 43.9384 34.9929 43.3661 35.2818C42.7937 35.5706 42.5226 36.3716 42.7595 37.0705L43.4701 39.163L39.6816 37.249V16.8549C39.6816 16.28 39.3872 15.765 38.9436 15.5688L24.5099 9.15363V4.67156L25.8229 6.27366C25.914 6.3978 26.0333 6.49879 26.1711 6.56841C26.3088 6.63803 26.4612 6.67432 26.6157 6.67432C26.7702 6.67432 26.9225 6.63803 27.0602 6.56841C27.198 6.49879 27.3173 6.3978 27.4084 6.27366C27.6215 5.99552 27.7369 5.65546 27.7369 5.30573C27.7369 4.95599 27.6215 4.61593 27.4084 4.33779L24.1813 0.400656C24.0901 0.276513 23.9709 0.175525 23.8331 0.105905C23.6954 0.0362854 23.543 0 23.3885 0C23.234 0 23.0817 0.0362854 22.944 0.105905C22.8062 0.175525 22.6869 0.276513 22.5958 0.400656L19.3687 4.33779C19.1556 4.61593 19.0402 4.95599 19.0402 5.30573C19.0402 5.65546 19.1556 5.99552 19.3687 6.27366C19.4598 6.3978 19.5791 6.49879 19.7168 6.56841C19.8546 6.63803 20.0069 6.67432 20.1614 6.67432C20.3159 6.67432 20.4682 6.63803 20.606 6.56841C20.7437 6.49879 20.863 6.3978 20.9542 6.27366L22.2672 4.67156V9.15363L7.83479 15.5688C7.39118 15.7664 7.09681 16.28 7.09681 16.8549V37.249L3.30695 39.163L4.01755 37.0705C4.25441 36.373 3.98332 35.5719 3.41101 35.2818C2.8387 34.9916 2.17876 35.324 1.946 36.0229L0.19894 41.1657C0.084647 41.5056 0.084647 41.8733 0.19894 42.2133C0.296982 42.5296 0.515047 42.7954 0.80685 42.9544L5.02115 45.0933C5.1536 45.1616 5.3005 45.1976 5.4497 45.1982C5.8892 45.1982 6.3068 44.8807 6.48616 44.3535C6.72302 43.656 6.45193 42.8549 5.87962 42.5648L4.16542 41.6874L8.19762 39.6507L23.0052 46.2363C23.1278 46.2837 23.2572 46.3117 23.3885 46.3194C23.5195 46.3121 23.6485 46.284 23.7705 46.2363L38.5863 39.6548L42.6116 41.6874L40.8974 42.5539C40.3251 42.844 40.054 43.6437 40.2909 44.3426C40.4703 44.8698 40.8879 45.1873 41.3274 45.1873C41.4766 45.1867 41.6235 45.1507 41.7559 45.0824L45.9716 42.9503C46.2631 42.791 46.4811 42.5253 46.5795 42.2092C46.6922 41.8704 46.6922 41.5045 46.5795 41.1657ZM22.2672 42.9966L11.2646 38.1059L22.2672 32.6634V42.9966ZM22.2672 29.7126L9.3395 36.0787V18.9638L22.2672 25.3299V29.7126ZM22.2672 22.3791L11.2604 16.9584L22.2672 12.0663V22.3791ZM24.5099 12.0663L35.5166 16.9584L24.5099 22.3791V12.0663ZM24.5099 42.9912V32.6634L35.5125 38.1059L24.5099 42.9912ZM37.4376 36.0733L24.5099 29.7126V25.3299L37.4376 18.9638V36.0787V36.0733Z" fill="#E93D07"/>
</svg>
