<svg width="18" height="18" viewBox="0 0 18 18" fill="none" xmlns="http://www.w3.org/2000/svg">
<path fill-rule="evenodd" clip-rule="evenodd" d="M6.23712 0H11.7629C16.8059 0 18 1.19407 18 6.23711V11.7629C18 16.8059 16.8059 18 11.7629 18H6.23712C1.19407 18 0 16.8059 0 11.7629V6.23711C0 1.19407 1.19407 0 6.23712 0Z" fill="#4680C2"/>
<path fill-rule="evenodd" clip-rule="evenodd" d="M14.7121 5.74541C14.801 5.46596 14.7121 5.26271 14.3183 5.26271H13.0099C12.6796 5.26271 12.5272 5.44054 12.4383 5.63111C12.4383 5.63111 11.765 7.25708 10.825 8.31139C10.5201 8.61626 10.3804 8.71789 10.2153 8.71789C10.1263 8.71789 10.012 8.61626 10.012 8.33681V5.7327C10.012 5.40244 9.91038 5.25 9.6309 5.25H7.57305C7.3698 5.25 7.24278 5.40244 7.24278 5.55488C7.24278 5.87246 7.71277 5.94866 7.76358 6.83786V8.7687C7.76358 9.18791 7.68738 9.26411 7.52223 9.26411C7.07763 9.26411 5.9979 7.62544 5.35005 5.75813C5.223 5.38973 5.09598 5.25 4.76572 5.25H3.4446C3.06352 5.25 3 5.42786 3 5.6184C3 5.96138 3.4446 7.68896 5.07056 9.97549C6.15033 11.5379 7.68738 12.3763 9.072 12.3763C9.91038 12.3763 10.012 12.1858 10.012 11.8682V10.6869C10.012 10.3057 10.0882 10.2423 10.355 10.2423C10.5455 10.2423 10.8885 10.3439 11.6634 11.0933C12.5526 11.9825 12.705 12.389 13.2004 12.389H14.5088C14.8899 12.389 15.0678 12.1985 14.9661 11.8301C14.8518 11.4617 14.4199 10.9282 13.861 10.293C13.5561 9.93739 13.0988 9.5436 12.9591 9.35302C12.7685 9.099 12.8193 8.99737 12.9591 8.7687C12.9464 8.7687 14.5469 6.5076 14.7121 5.74541Z" fill="white"/>
</svg>
