<svg width="18" height="18" viewBox="0 0 18 18" fill="none" xmlns="http://www.w3.org/2000/svg">
<path d="M0 9C0 4.02944 4.02944 0 9 0C13.9706 0 18 4.02944 18 9C18 13.9706 13.9706 18 9 18C4.02944 18 0 13.9706 0 9Z" fill="#FF0000"/>
<path d="M13.5993 6.77746C13.4889 6.35333 13.1636 6.01935 12.7506 5.906C12.002 5.7 8.99995 5.7 8.99995 5.7C8.99995 5.7 5.99793 5.7 5.2493 5.906C4.83622 6.01935 4.51091 6.35333 4.40051 6.77746C4.19995 7.54614 4.19995 9.15 4.19995 9.15C4.19995 9.15 4.19995 10.7538 4.40051 11.5225C4.51091 11.9467 4.83622 12.2807 5.2493 12.3941C5.99793 12.6 8.99995 12.6 8.99995 12.6C8.99995 12.6 12.002 12.6 12.7506 12.3941C13.1636 12.2807 13.4889 11.9467 13.5993 11.5225C13.8 10.7538 13.8 9.15 13.8 9.15C13.8 9.15 13.8 7.54614 13.5993 6.77746Z" fill="white"/>
<path d="M8.09998 10.8V7.8L10.5 9.30006L8.09998 10.8Z" fill="#FF0000"/>
</svg>
