<svg width="62" height="62" viewBox="0 0 62 62" fill="none" xmlns="http://www.w3.org/2000/svg">
<path d="M31 0C48.1208 5.15408e-07 62 13.8792 62 31C62 48.1208 48.1208 62 31 62C13.8792 62 5.1544e-07 48.1208 0 31C0 13.8792 13.8792 0 31 0ZM30.999 14.4668C26.5114 14.4668 25.9475 14.4862 24.1846 14.5664C22.4247 14.647 21.223 14.9262 20.1719 15.335C19.0845 15.7573 18.1612 16.3219 17.2422 17.2412C16.3226 18.1602 15.7576 19.0829 15.334 20.1699C14.9241 21.2215 14.6456 22.4233 14.5664 24.1826C14.4875 25.9461 14.4668 26.5102 14.4668 31C14.4668 35.4902 14.4865 36.0528 14.5664 37.8164C14.6474 39.5763 14.9265 40.7779 15.335 41.8291C15.7576 42.9163 16.322 43.839 17.2412 44.7578C18.1598 45.6774 19.0824 46.2437 20.1689 46.666C21.2208 47.0749 22.423 47.353 24.1826 47.4336C25.9461 47.5138 26.5096 47.5342 30.999 47.5342C35.4896 47.5342 36.0519 47.5139 37.8154 47.4336C39.5754 47.353 40.7782 47.0748 41.8301 46.666C42.9171 46.2438 43.8383 45.6774 44.7568 44.7578C45.6765 43.8388 46.2414 42.9162 46.665 41.8291C47.0715 40.7775 47.3509 39.5758 47.4336 37.8164C47.5128 36.0528 47.5332 35.4902 47.5332 31C47.5332 26.5106 47.5128 25.9467 47.4336 24.1836C47.3509 22.4235 47.0715 21.2212 46.665 20.1699C46.2414 19.0827 45.6764 18.1601 44.7568 17.2412C43.8372 16.3217 42.9175 15.7569 41.8291 15.335C40.7752 14.9262 39.5733 14.647 37.8135 14.5664C36.0502 14.4862 35.4882 14.4668 30.999 14.4668Z" fill="white"/>
<path d="M29.5188 17.4458C29.9588 17.4451 30.4497 17.4458 31.0012 17.4458C35.4157 17.4458 35.9396 17.4623 37.6829 17.5415C39.2946 17.6152 40.1694 17.8846 40.7522 18.1108C41.5237 18.4105 42.0743 18.7685 42.6526 19.3472C43.2311 19.9257 43.5896 20.4771 43.8899 21.2485C44.1162 21.8307 44.3859 22.7061 44.4592 24.3179C44.5384 26.0604 44.5549 26.5846 44.5549 30.9966C44.5549 35.4087 44.5384 35.9324 44.4592 37.6753C44.3855 39.2872 44.1162 40.1625 43.8899 40.7446C43.5903 41.5159 43.231 42.0649 42.6526 42.6431C42.0739 43.2217 41.5241 43.5807 40.7522 43.8804C40.1701 44.1077 39.2945 44.376 37.6829 44.4497C35.94 44.5289 35.4157 44.5464 31.0012 44.5464C26.5867 44.5464 26.0634 44.5289 24.3206 44.4497C22.7086 44.3753 21.8334 44.1057 21.2502 43.8794C20.4789 43.5798 19.9275 43.2216 19.3489 42.6431C18.7703 42.0645 18.4119 41.5145 18.1116 40.7427C17.8853 40.1606 17.6156 39.2852 17.5422 37.6733C17.463 35.9308 17.4475 35.4065 17.4475 30.9917C17.4475 26.577 17.463 26.0558 17.5422 24.313C17.616 22.7013 17.8853 21.8264 18.1116 21.2437C18.4112 20.4722 18.7703 19.9209 19.3489 19.3423C19.9275 18.7637 20.4788 18.4053 21.2502 18.105C21.833 17.8776 22.7086 17.6087 24.3206 17.5347C25.8458 17.4658 26.4374 17.4453 29.5188 17.4419V17.4458ZM30.5647 22.521C26.0787 22.7484 22.511 26.458 22.511 31.0005C22.5111 35.6892 26.3125 39.4886 31.0012 39.4888C35.6901 39.4888 39.4903 35.6893 39.4905 31.0005C39.4905 26.3115 35.6902 22.5093 31.0012 22.5093L30.5647 22.521ZM39.6243 20.2017C38.6241 20.3032 37.8431 21.1472 37.843 22.1743C37.843 23.2697 38.732 24.1587 39.8274 24.1587C40.9226 24.1585 41.8108 23.2695 41.8108 22.1743C41.8107 21.0792 40.9225 20.1911 39.8274 20.1909L39.6243 20.2017Z" fill="white"/>
<path d="M31.0016 25.4888C34.0451 25.4888 36.5127 27.9561 36.5127 30.9999C36.5127 34.0435 34.0451 36.5111 31.0016 36.5111C27.9577 36.5111 25.4904 34.0435 25.4904 30.9999C25.4904 27.9561 27.9577 25.4888 31.0016 25.4888V25.4888Z" fill="white"/>
</svg>
