<svg width="62" height="62" viewBox="0 0 62 62" fill="none" xmlns="http://www.w3.org/2000/svg">
<path d="M31 0C48.1208 5.15408e-07 62 13.8792 62 31C62 48.1208 48.1208 62 31 62C13.8792 62 5.1544e-07 48.1208 0 31C0 13.8792 13.8792 0 31 0ZM30.999 14.4668C26.5114 14.4668 25.9475 14.4862 24.1846 14.5664C22.4246 14.647 21.2231 14.9262 20.1719 15.335C19.0845 15.7573 18.1612 16.3219 17.2422 17.2412C16.3226 18.1601 15.7576 19.0829 15.334 20.1699C14.9242 21.2215 14.6456 22.4233 14.5664 24.1826C14.4875 25.9461 14.4668 26.51 14.4668 31C14.4668 35.4899 14.4865 36.0521 14.5664 37.8154C14.6473 39.5754 14.9265 40.7769 15.335 41.8281C15.7576 42.9155 16.3219 43.8388 17.2412 44.7578C18.1598 45.6774 19.0823 46.2437 20.1689 46.666C21.2208 47.0749 22.423 47.353 24.1826 47.4336C25.9461 47.5138 26.5096 47.5342 30.999 47.5342C35.4896 47.5342 36.0519 47.5139 37.8154 47.4336C39.5754 47.353 40.7782 47.0748 41.8301 46.666C42.917 46.2438 43.8383 45.6773 44.7568 44.7578C45.6764 43.8389 46.2414 42.9161 46.665 41.8291C47.0715 40.7776 47.3509 39.5757 47.4336 37.8164C47.5128 36.0528 47.5332 35.4902 47.5332 31C47.5332 26.5099 47.5128 25.9462 47.4336 24.1826C47.3509 22.4226 47.0715 21.2211 46.665 20.1699C46.2414 19.0826 45.6765 18.1601 44.7568 17.2412C43.8372 16.3216 42.9175 15.7569 41.8291 15.335C40.7752 14.9261 39.5733 14.647 37.8135 14.5664C36.0502 14.4862 35.4882 14.4668 30.999 14.4668Z" fill="#2B2A29"/>
<path d="M29.5188 17.4459C29.9588 17.4452 30.4497 17.4459 31.0012 17.4459C35.4157 17.4459 35.9396 17.4624 37.6829 17.5416C39.2946 17.6154 40.1694 17.8847 40.7522 18.111C41.5237 18.4106 42.0743 18.7687 42.6526 19.3473C43.2311 19.9259 43.5896 20.4772 43.8899 21.2487C44.1162 21.8308 44.3859 22.7062 44.4592 24.318C44.5384 26.0605 44.5549 26.5847 44.5549 30.9967C44.5549 35.4088 44.5384 35.9325 44.4592 37.6754C44.3855 39.2873 44.1162 40.1627 43.8899 40.7448C43.5903 41.516 43.231 42.0651 42.6526 42.6432C42.0739 43.2219 41.5241 43.5808 40.7522 43.8805C40.1701 44.1078 39.2945 44.3761 37.6829 44.4498C35.94 44.5291 35.4157 44.5465 31.0012 44.5465C26.5867 44.5465 26.0634 44.5291 24.3206 44.4498C22.7086 44.3754 21.8334 44.1058 21.2502 43.8795C20.4789 43.5799 19.9275 43.2218 19.3489 42.6432C18.7703 42.0646 18.4119 41.5146 18.1116 40.7428C17.8853 40.1607 17.6156 39.2853 17.5422 37.6735C17.463 35.9309 17.4475 35.4066 17.4475 30.9918C17.4475 26.5771 17.463 26.056 17.5422 24.3131C17.616 22.7015 17.8853 21.8265 18.1116 21.2438C18.4112 20.4723 18.7703 19.921 19.3489 19.3424C19.9275 18.7638 20.4788 18.4054 21.2502 18.1051C21.833 17.8778 22.7086 17.6089 24.3206 17.5348C25.8458 17.4659 26.4374 17.4455 29.5188 17.442V17.4459ZM30.5647 22.5201C26.0787 22.7475 22.511 26.4581 22.511 31.0006C22.5112 35.6893 26.3126 39.4887 31.0012 39.4889C35.69 39.4889 39.4902 35.6894 39.4905 31.0006C39.4905 26.3116 35.6902 22.5094 31.0012 22.5094L30.5647 22.5201ZM39.6243 20.2018C38.6242 20.3033 37.8432 21.1474 37.843 22.1744C37.843 23.2698 38.732 24.1588 39.8274 24.1588C40.9226 24.1586 41.8108 23.2697 41.8108 22.1744C41.8106 21.0794 40.9225 20.1913 39.8274 20.191L39.6243 20.2018Z" fill="#2B2A29"/>
<path d="M31.0016 25.489C34.0451 25.489 36.5127 27.9562 36.5127 31.0001C36.5127 34.0437 34.0451 36.5113 31.0016 36.5113C27.9577 36.5113 25.4904 34.0437 25.4904 31.0001C25.4904 27.9562 27.9577 25.489 31.0016 25.489V25.489Z" fill="#2B2A29"/>
</svg>
