<svg width="62" height="62" viewBox="0 0 62 62" fill="none" xmlns="http://www.w3.org/2000/svg">
<path d="M31 0C48.1208 5.15408e-07 62 13.8792 62 31C62 48.1208 48.1208 62 31 62C13.8792 62 5.1544e-07 48.1208 0 31C0 13.8792 13.8792 0 31 0ZM32.0215 11.3662C21.8612 11.3663 13.5921 19.6354 13.5879 29.7988C13.5865 33.0477 14.4357 36.2191 16.0488 39.0146L13.4336 48.5664L23.2051 46.0029C25.8975 47.4715 28.9295 48.246 32.0146 48.2471H32.0215C42.1849 48.2429 50.451 39.9747 50.4551 29.8135C50.457 24.8882 48.5417 20.2566 45.0615 16.7725C41.5813 13.2882 36.9526 11.3683 32.0215 11.3662Z" fill="#2B2A29"/>
<path d="M32.0283 14.4802C36.1204 14.4817 39.9668 16.0775 42.8593 18.9733C45.7519 21.8693 47.3442 25.7184 47.3427 29.8122C47.3394 38.2603 40.4661 45.1335 32.0215 45.1335H32.0156C29.2665 45.1324 26.57 44.3945 24.2177 42.9987L23.6582 42.6667L17.8593 44.1872L19.4072 38.5339L19.0429 37.9538C17.5093 35.5146 16.699 32.6954 16.7002 29.8005C16.7035 21.353 23.5772 14.4802 32.0283 14.4802ZM25.4951 21.2868C25.188 21.2869 24.6895 21.4021 24.2675 21.863C23.8454 22.3241 22.6554 23.4381 22.6552 25.7048C22.6552 27.9715 24.3053 30.1615 24.5361 30.4694C24.7664 30.777 27.7838 35.4294 32.4043 37.4245C33.5031 37.8991 34.3613 38.183 35.0302 38.3952C36.1333 38.7457 37.1373 38.6955 37.9306 38.5768C38.8156 38.4447 40.656 37.4632 41.04 36.3874C41.4236 35.3113 41.4237 34.389 41.3086 34.197C41.1935 34.0048 40.8863 33.8895 40.4258 33.6589C39.9649 33.4282 37.7005 32.3147 37.2783 32.1608C36.8562 32.0072 36.5492 31.9304 36.2422 32.3913C35.9351 32.8523 35.053 33.8893 34.7842 34.197C34.5155 34.5042 34.2465 34.5428 33.7861 34.3122C33.3255 34.0817 31.8413 33.5953 30.082 32.0261C28.7128 30.8048 27.7882 29.2968 27.5195 28.8356C27.2508 28.3745 27.4911 28.1249 27.7217 27.8952C27.9288 27.6888 28.1819 27.3573 28.4121 27.0886C28.6424 26.8197 28.7195 26.6272 28.873 26.32C29.0264 26.0126 28.95 25.7438 28.8349 25.5134C28.7198 25.2828 27.7989 23.0159 27.415 22.0934C27.0411 21.1953 26.6606 21.3166 26.3779 21.3024C26.1096 21.289 25.802 21.2868 25.4951 21.2868Z" fill="#2B2A29"/>
</svg>
