<svg width="62" height="62" viewBox="0 0 62 62" fill="none" xmlns="http://www.w3.org/2000/svg">
<path d="M31 0C48.1208 5.15408e-07 62 13.8792 62 31C62 48.1208 48.1208 62 31 62C13.8792 62 5.1544e-07 48.1208 0 31C0 13.8792 13.8792 0 31 0ZM32.0215 11.3662C21.8612 11.3663 13.5919 19.6353 13.5879 29.7988C13.5865 33.0477 14.4357 36.2191 16.0488 39.0146L13.4336 48.5664L23.2051 46.0029C25.8975 47.4715 28.9295 48.246 32.0146 48.2471H32.0215C42.1848 48.2429 50.4509 39.9747 50.4551 29.8135C50.457 24.8881 48.5418 20.2566 45.0615 16.7725C41.5813 13.2881 36.9527 11.3683 32.0215 11.3662Z" fill="white"/>
<path d="M32.0283 14.48C36.1204 14.4815 39.9668 16.0773 42.8594 18.9731C45.752 21.8691 47.3443 25.7182 47.3428 29.812C47.3394 38.2601 40.4661 45.1333 32.0215 45.1333H32.0156C29.2665 45.1322 26.57 44.3943 24.2178 42.9985L23.6582 42.6665L17.8594 44.187L19.4072 38.5337L19.043 37.9536C17.5093 35.5144 16.6991 32.6952 16.7002 29.8003C16.7035 21.3528 23.5772 14.48 32.0283 14.48ZM25.4951 21.2866C25.1881 21.2867 24.6895 21.4021 24.2676 21.8628C23.8454 22.3239 22.6553 23.4386 22.6553 25.7056C22.6553 27.9727 24.3058 30.1629 24.5361 30.4702C24.7672 30.779 27.7846 35.4305 32.4043 37.4253C33.5031 37.8998 34.3613 38.1828 35.0303 38.395C36.1334 38.7455 37.1373 38.6962 37.9307 38.5776C38.8157 38.4455 40.6561 37.4631 41.04 36.3872C41.4233 35.3119 41.4235 34.3905 41.3086 34.1978C41.1935 34.0056 40.8863 33.8903 40.4258 33.6597C39.9652 33.4291 37.7006 32.3145 37.2783 32.1606C36.8564 32.0071 36.5491 31.9304 36.2422 32.3911C35.9352 32.8521 35.0529 33.8904 34.7842 34.1978C34.5156 34.505 34.2464 34.5435 33.7861 34.313C33.3256 34.0825 31.8413 33.596 30.082 32.0269C28.7128 30.8055 27.7882 29.2966 27.5195 28.8354C27.2512 28.3746 27.4912 28.1256 27.7217 27.896C27.9289 27.6896 28.1818 27.3573 28.4121 27.0884C28.6423 26.8196 28.7196 26.6278 28.873 26.3208C29.0266 26.0133 28.9501 25.7437 28.835 25.5132C28.7194 25.2815 27.7987 23.0153 27.415 22.0933C27.0412 21.1953 26.6606 21.3174 26.3779 21.3032C26.1097 21.2898 25.802 21.2866 25.4951 21.2866Z" fill="white"/>
</svg>
